/* XPM */
static char *stone_wall[] = {
/* columns rows colors chars-per-pixel */
"32 32 167 2 ",
"   c #517232",
".  c #59793B",
"X  c #5F7A44",
"o  c #627D46",
"O  c #60774A",
"+  c #647C4D",
"@  c #657553",
"#  c #667B53",
"$  c #697E57",
"%  c #667459",
"&  c #6A745A",
"*  c #6B7B5A",
"=  c #70775F",
"-  c #6E6668",
";  c #706E67",
":  c #6B7064",
">  c #6D7961",
",  c #707661",
"<  c #747B65",
"1  c #74756B",
"2  c #777D6A",
"3  c #787F6D",
"4  c #746D76",
"5  c #7A6D76",
"6  c #7B6E7B",
"7  c #7B7675",
"8  c #777B74",
"9  c #7C7B74",
"0  c #777378",
"q  c #7A737C",
"w  c #7D7C7C",
"e  c #668349",
"r  c #68804E",
"t  c #658050",
"y  c #6C8354",
"u  c #6E8B51",
"i  c #73875F",
"p  c #738A5B",
"a  c #758465",
"s  c #768B64",
"d  c #75856E",
"f  c #798769",
"g  c #75896A",
"h  c #7B8B6A",
"j  c #7C8273",
"k  c #7E867C",
"l  c #7D8B78",
"z  c #7D9473",
"x  c #82986E",
"c  c #818B70",
"v  c #85817E",
"b  c #848D7D",
"n  c #849375",
"m  c #83937C",
"M  c #88987E",
"N  c #7C7681",
"B  c #7F7A84",
"V  c #837382",
"C  c #847B85",
"Z  c #897C87",
"A  c #867689",
"S  c #867E89",
"D  c #8A7E89",
"F  c #858A84",
"G  c #85858C",
"H  c #8C838C",
"J  c #878B8C",
"K  c #8D8B8C",
"L  c #91868E",
"P  c #879381",
"I  c #8C9483",
"U  c #8D9E82",
"Y  c #929B83",
"T  c #91908D",
"R  c #91998F",
"E  c #878490",
"W  c #8D8592",
"Q  c #8E8991",
"!  c #8F8899",
"~  c #918693",
"^  c #938B94",
"/  c #948C9B",
"(  c #988B99",
")  c #959194",
"_  c #949B91",
"`  c #9B9B97",
"'  c #96929E",
"]  c #9C949D",
"[  c #969B9B",
"{  c #9C9A9C",
"}  c #A19E9B",
"|  c #8CA083",
" . c #98AA89",
".. c #94A292",
"X. c #9CA695",
"o. c #9DA49D",
"O. c #A0A49C",
"+. c #A1AC9C",
"@. c #A6B29B",
"#. c #988FA1",
"$. c #9792A1",
"%. c #9A94A3",
"&. c #9C9BA6",
"*. c #9D97A9",
"=. c #9E9AAA",
"-. c #A69DA7",
";. c #A19DAD",
":. c #A89DAA",
">. c #A39EB2",
",. c #9CA3A1",
"<. c #9DA8A4",
"1. c #A8A4A2",
"2. c #A2A0AD",
"3. c #ABA5A8",
"4. c #A7A9AF",
"5. c #A9ADAD",
"6. c #B0A5AF",
"7. c #ACB5A5",
"8. c #ABB3AA",
"9. c #AFB9AD",
"0. c #B1B4AF",
"q. c #B2BAAC",
"w. c #A4A3B3",
"e. c #AAA6B3",
"r. c #ACA9B3",
"t. c #A7A5BA",
"y. c #A8A6BB",
"u. c #A7A8B9",
"i. c #ACABBC",
"p. c #B1ACB6",
"a. c #B1AEB9",
"s. c #ADB1BF",
"d. c #B3B6B3",
"f. c #B3BBB4",
"g. c #B5B2BC",
"h. c #BBB3BC",
"j. c #B6BCB8",
"k. c #BABEBC",
"l. c #BCC3B6",
"z. c #BDC2BA",
"x. c #ADAFC0",
"c. c #B2AEC2",
"v. c #AFB0C1",
"b. c #B3B4C4",
"n. c #BAB7C6",
"m. c #B6B8C7",
"M. c #BCBAC4",
"N. c #B7B6C8",
"B. c #BCB6CA",
"V. c #B7B8C8",
"C. c #BCBCCB",
"Z. c #C1BDC7",
"A. c #C1BFCD",
"S. c #C1BFD0",
"D. c #BDC1C2",
"F. c #C6C6C6",
"G. c #C2C1CE",
"H. c #C9C5CF",
"J. c #CACACD",
"K. c #C5C3D2",
"L. c #C9C6D4",
"P. c #CBC9D6",
"I. c #CDCBD9",
"U. c #D1CDDC",
"Y. c #D6D1DE",
"T. c #D7D1E1",
"R. c #DAD5E2",
/* pixels */
"g.r.i.p.g.g.g.g.g.n.W B o.e.5.r.e.e.r.r.r.a.a.a.a.p.B C r.e.e.r.",
"P.L.L.L.L.P.L.P.I.z.c a q.I.L.L.L.L.L.L.P.P.P.L.I.U.~ K F.P.P.P.",
"G.G.G.A.K.C.G.D.G.g.r g B.C.G.G.C.K.G.D.C.A.D.G.G.M.j t 5.A.G.G.",
"G.A.G.G.G.S.K.C.C.b.a J i.b.C.G.K.D.K.K.K.K.S.C.C.e.+ j w.b.C.G.",
"V.C.C.C.C.C.C.V.v.w.w E u.w.v.m.V.C.C.C.C.C.C.m.x.w.> G y.w.s.m.",
"&.&.;.;.;.[ P $.$./ q N *.&.%.*.;.w.e.w.>.;.%.b b ^ % 8 *.*.%.*.",
"-.c @ K ^ b c T ^ ^ Q Q ' ] ] ] Q F 1 T ] %.] I I ) p f { -.-.3.",
"R.3.v Y.Y.Y.T.T.Y.Y.Y.T.R.I.P.U.J.h # 9.I.P.P.I.P.P.k.D.P.I.P.I.",
"G.:.S Z.C.K.A.G.G.G.G.A.C.G.G.G.L.} $ X.M.G.A.A.K.C.K.K.A.A.A.A.",
"8.f # P b.C.A.G.G.G.G.K.K.G.A.C.B.#.B [ r.S.C.G.G.K.G.S.A.G.A.A.",
"i.k @ e.t.x.C.B.C.A.C.S.C.C.C.m.x.! N t.u.s.m.C.C.C.C.C.C.C.C.b.",
"w.G % { w.2.w.y.U ..<...U e.;.=.m w % _ w.>.w.e.i.i.c.c.r.,.w.;.",
"Z 7 O 2 H H K H v o o . 1 5 5 V 2 . . 7 Z Z C Z V c 9 9 C + < Z ",
"Z.n.d.M.M.Z.A.Z.S.K.f F A.Z.H.H.F. .@.d.H.G.Z.Z.A.q.o $ C.M.+.Z.",
"L.G.L.K.L.L.K.K.L.U.) n L.L.P.P.L.j.G.G.P.L.L.K.U.k.2 F G.K.K.L.",
"G.G.G.G.G.G.G.G.Z.B.H e O.A.A.A.G.K.K.G.A.G.A.A.A.8.* G b.C.S.S.",
"C.C.C.A.S.C.D.M.C.w.@ l t.i.C.C.C.D.K.C.C.S.C.C.n.y.$ g t.i.V.C.",
"N.N.C.B.C.V.N.b.y.*.% F x.w.u.v.b.V.V.C.B.C.V.b.u.w.w 9 u.w.u.x.",
"/ / / D C A 7 , 9 , - 0 ! / ( / / $.*.' ( ! ~ W ! W 4 0 ^ / / / ",
"h.%.% Y e.` n x u O.p.e.p.p.p.p.p.^ & 3.h.g.h.n.h.h.p.p.h.h.h.h.",
"J.Y $ 9.I.L.G.k.D.L.P.P.I.P.P.I.R.1.$ F.T.Y.R.R.R.R.R.R.R.R.T.U.",
"D.s t c.n.A.G.K.L.D.K.C.A.A.A.C.S.I 8 b.C.C.C.K.L.I.L.K.G.G.Z.G.",
"V.b $ w.c.C.C.C.C.K.K.C.A.A.Z.Z.n.b $ &.i.C.B.D.A.A.D.K.G.C.C.C.",
"i.F & m z <.V.V.C.C.C.C.C.C.V.b.y.Q $ &.t.u.b.m.C.C.C.C.C.C.m.b.",
"#.q   y I %.%.*.*.;.w.e.;.*.%.%.#.C : ^ [ ] %.%.*.*.w.;.&.' / ' ",
"/ Q b ^ ) %.] ] -.K & , ~ L L L ~ d y y b ^ ^ ^ ~ H ; & ^ ^ ^ ^ ",
"P.P.I.P.P.P.I.P.U.z.f I U.L.L.I.P.9.D.j.P.I.I.P.Y.J.+ e @.q.P.I.",
"G.G.A.A.G.G.G.G.C.K.( $.A.A.A.G.A.K.K.K.A.A.A.A.K.d.e X | M.G.G.",
"G.G.G.G.K.G.G.G.C.b.W k <.C.D.C.G.G.G.G.K.G.G.Z.C.b.8 d ..n.G.G.",
"C.C.A.C.C.C.C.V.N._ + t &.y.N.C.C.C.C.C.C.A.C.C.b.w.B S y.w.b.m.",
"e.i.y.s.g.i.y.w.>.=.1 w t.>.w.w.y.i.b.b.b.i.i.w.2.*.N C >.>.<.t.",
"K H H D G Z C C Z Z q N H K ~ ~ K W W H H D D D D H 0 0 D W D W "
};
