/* XPM */
static char *wall[] = {
/* columns rows colors chars-per-pixel */
"32 32 14 1 ",
"  c #8C8C8C",
". c #8F8F8F",
"X c #929292",
"o c #949494",
"O c #B5B5B5",
"+ c #BABABA",
"@ c #BFBFBF",
"# c #C1C1C1",
"$ c #C8C8C8",
"% c #C9C9C9",
"& c #CFCFCF",
"* c #F5F5F5",
"= c #F9F9F9",
"- c white",
/* pixels */
"------------------------------=@",
"-----------------------------=#.",
"----------------------------*@..",
"---------------------------=@. .",
"--------------------------*@.   ",
"-------------------------=@... .",
"------------------------=#. .   ",
"--------=*==*==*=*=*=*=*#.     .",
"-------=&%%%%%%%$$%%$%$#X.      ",
"-------*%#@####@@###@##+X.. .  .",
"-------=%##############@X   .   ",
"-------=%##############+X..    .",
"-------*%##############+X .     ",
"-------=%@#############+X    . .",
"-------=%@#############+X.. .   ",
"-------*%##############+X      .",
"-------=%##############+X.  . . ",
"-------*%##############+X. .    ",
"-------=$@#############+X .   . ",
"-------=%##############@X.   .  ",
"-------*%@#############+X  .. . ",
"-------=%##############+X       ",
"-------=%######@#######+X.   . .",
"-------*#+++@+++++@+++@OX .     ",
"------=#XXXXXXXXXXXXXXXX.   . . ",
"-----=#.  .  .    . .   .  .    ",
"----=@.    .. . .    .   .    . ",
"---=@. ..       . .   .      .  ",
"--=@.     .      .       . .. . ",
"-=@. . . .   . .  . . .         ",
"=#. .       .          . .    . ",
"@.     . . .   . .  .     .  .  "
};
