/* XPM */
static char *wood_tiles[] = {
/* columns rows colors chars-per-pixel */
"32 32 124 2 ",
"   c #6D5867",
".  c #6E5967",
"X  c #725A68",
"o  c #735A68",
"O  c #735B69",
"+  c #745B69",
"@  c #755C69",
"#  c #7D5D6C",
"$  c #79606C",
"%  c #7E626D",
"&  c #805F6D",
"*  c #83646F",
"=  c #886270",
"-  c #896270",
";  c #896370",
":  c #8F6571",
">  c #8A6A73",
",  c #8F6873",
"<  c #8D6A74",
"1  c #8D6B74",
"2  c #8F6E76",
"3  c #926672",
"4  c #936773",
"5  c #946673",
"6  c #956874",
"7  c #976B75",
"8  c #906F76",
"9  c #956C76",
"0  c #946F77",
"q  c #9A6875",
"w  c #9D6976",
"e  c #947078",
"r  c #967178",
"t  c #967279",
"y  c #9A7179",
"u  c #99747A",
"i  c #98767B",
"p  c #9B767B",
"a  c #9D757B",
"s  c #9B767C",
"d  c #9B777C",
"f  c #9E777C",
"g  c #9E797E",
"h  c #9E7A7E",
"j  c #9F7A7E",
"k  c #A46B77",
"l  c #A16B78",
"z  c #A26C78",
"x  c #A56C78",
"c  c #A56D79",
"v  c #A66D79",
"b  c #A76E79",
"n  c #A96F7A",
"m  c #AC6F7A",
"M  c #AE6F7B",
"N  c #A8717B",
"B  c #AD717B",
"V  c #AE717B",
"C  c #A07A7E",
"Z  c #A17A7E",
"A  c #A17C7F",
"S  c #A27C7F",
"D  c #AC797F",
"F  c #AD797F",
"G  c #9F7E81",
"H  c #A27D80",
"J  c #A27E80",
"K  c #A37F81",
"L  c #AD7980",
"P  c #B67E83",
"I  c #A38082",
"U  c #A78183",
"Y  c #A58384",
"T  c #A58385",
"R  c #A48586",
"E  c #A78787",
"W  c #AB8083",
"Q  c #AB8183",
"!  c #AD8585",
"~  c #A78888",
"^  c #A78988",
"/  c #A88888",
"(  c #A88989",
")  c #A98D8D",
"_  c #AA8E8E",
"`  c #B78084",
"'  c #B48787",
"]  c #B88185",
"[  c #B98386",
"{  c #BA8487",
"}  c #BB8688",
"|  c #BC8788",
" . c #B38888",
".. c #B38A89",
"X. c #B48989",
"o. c #B68A89",
"O. c #B88B8A",
"+. c #B98B8A",
"@. c #BD898A",
"#. c #BD8A8A",
"$. c #BD8A8B",
"%. c #B88C8B",
"&. c #BA8E8C",
"*. c #BE8E8D",
"=. c #B6908E",
"-. c #B9908D",
";. c #BF918E",
":. c #AB9191",
">. c #AC9292",
",. c #C08E8D",
"<. c #C1908E",
"1. c #C3928F",
"2. c #C3938F",
"3. c #C39390",
"4. c #C29491",
"5. c #C49590",
"6. c #C49591",
"7. c #C59591",
"8. c #C49691",
"9. c #C59893",
"0. c #C69993",
"q. c #C69A94",
"w. c #C79A95",
"e. c #C79B96",
/* pixels */
". . O * 3 7 g g A g g g g h g * .   O * 4 0 g g A g 0 3 = O . . ",
"O + & n M ] 5.5.9.1.1.#.#.1.o.> O O * c B ` 4.1.2.2.` V k * O . ",
"z c n V V ] 5.5.1.1.1.e.9.1.;.r w n n M B { 3.1.5.5.} V V V k = ",
"l c c c c L %.&.%.%.%.&.%.%.%.8 q k k k c L %.%.%.%.L c k c k = ",
"3 7 5 3 7 a A < u K Y T ~ U A a 3 5 5 5 7 a A < u A a 5 6 6 3 3 ",
"] ] ] ` ] ,.&.d %.9.9.9.9.9.5.1.{ ] { P ] 1.1.u %.1.1.#.] ] ] ] ",
"5.5.9.4.5.*.U 8 %.1.4.5.4.5.5.5.1.3.9.3.1.1. .2 -.1.5.5.5.5.5.5.",
"%.%.&.&.&.%.+.0 Q -.%.%.%.%.%.%.&.&.%.-.-.%.%.r Q -.%.%.%.%.%.%.",
"f K Y ~ >._ T K g K K K K K Z < u I T ( :._ Y I Z K K K A K Z < ",
"3.5.5.9.9.9.5.9.5.5.4.5.5.5.4.Z %.9.5.5.w.w.5.5.5.1.1.1.1.9.5.g ",
"5.5.5.5.5.5.5.5.5.3.1.#.3. .K 8 -.2.1.5.5.5.2.5.4.1.5.#.1.o.A < ",
"' &.%.%.%.%.%.%.%.%.+.o.-.&.! 8 Q %.%.%.=.%.%.%.%.%.%.%.&.=.! < ",
"A K K K K A A < u K Y ( _ >.T g Z K A K S K A 1 a I Y ^ _ :.T h ",
"] ] ] ] } 1.5.Z %.5.5.9.e.e.e.5.5.2.#.1.1.1.Q 2 %.2.9.9.e.e.e.4.",
"c n M M V } 5.K %.5.5.5.1.5.5.5.2.5.1.1.5.e.-.g %.5.2.5.2.2.4.1.",
"+ # w c k D %.r Q %.%.%.%.%.%.%.%.o.%.%.%.%.%.r Q %.%.%.-.%.-.-.",
"r u A E Y I U h g A K K A Z A < d A T ( E U U h h A y 0 3 @ $ $ ",
"2.9.5.e.5.5.4.5.1.1.1.#.#.;.o.2 %.1.9.9.9.5.2.5.9.5.] V x * o . ",
"2.9.2.2.5.9.5.1.5.5.5.9.e.1.1.u &.2.2.2.1.5.2.5.2.5.{ V V N x = ",
" .%.%.%.%.%.+.+.%.-.%.%. .-.%.r Q &.%.-.%.%.-.%.%.%.D x k x x = ",
"T Y J J Z K A < u U U ^ ~ Y A A T Y J J A J A < a S a 5 6 6 5 3 ",
"9.2.2.1.,.1. .8 %.1.4.9.e.9.1.5.5.9.5.1.1.1. .1 %.1.1.,.] ] ] ` ",
"2.2.9.8.e.1.-.g %.1.2.4.1.5.4.1.2.4.9.2.9.5.-.a %.1.1.5.5.5.2.5.",
"-.%.%.%.%.%.%.r Q -.%.-.%.%.%.%.;.%.%.%. .%.%.d Q %.&.%.%.%.%.-.",
"A A Y E >.:.U h A A A K K A A 2 u I U ^ :._ Y I A S A S S K A 1 ",
"2.2.8.9.w.w.8.9.2.9.5.5.5.5.2.A %.4.9.9.w.9.9.9.2.5.1.9.9.1.2.Z ",
"8.2.2.2.2.2.8.2.1.2.1.#.1. .K 2 %.2.2.9.2.2.2.2.9.1.1.%.1.o.A > ",
"X.%.-.%.-.%.%.-.%.%.%.%.&.-.! 2 Q -.%.%.%.%.%.%.%.&.%.o.%.-.! < ",
"C J J A S S A 1 u A U ( >.>.E Z A A I A A I A 1 u I Q Q _ >.E g ",
"[ [ [ ` | 2.8.C %.9.2.#.| #.{ { 2.2.+.1.2.;.Y 8 %.1.1.,.#.%.#.{ ",
"x n m V V | 8.A %.1.{ V N V x N 2.2.1.1.9.w.;.d %.1.,.M M M c x ",
"@ * x V V ` 2.f ' 1.P V V x * % -.2.1.1.2.2.2.a X.4.D n M x * @ "
};
