/* XPM */
static char *coin_wooden_tile_[] = {
/* columns rows colors chars-per-pixel */
"32 32 179 2 ",
"   c #6D5967",
".  c #735B69",
"X  c #7D5D6C",
"o  c #7B616D",
"O  c #BF470D",
"+  c #BB481A",
"@  c #B75336",
"#  c #C24A0B",
"$  c #C94F0E",
"%  c #C75004",
"&  c #CC5B04",
"*  c #D15D06",
"=  c #C24C1B",
"-  c #CA5213",
";  c #C85119",
":  c #D05C12",
">  c #CE6305",
",  c #D36705",
"<  c #D26D05",
"1  c #D76908",
"2  c #D77406",
"3  c #DD7805",
"4  c #D06816",
"5  c #C5592D",
"6  c #C55731",
"7  c #C35B3B",
"8  c #CD6623",
"9  c #B6614B",
"0  c #B86959",
"q  c #805F6D",
"w  c #83646F",
"e  c #9F6C67",
"r  c #8A6370",
"t  c #866872",
"y  c #8C6A74",
"u  c #936673",
"i  c #956B75",
"p  c #9C6875",
"a  c #957078",
"s  c #9C757B",
"d  c #9E7A7E",
"f  c #AC6568",
"g  c #B76E62",
"h  c #A77566",
"j  c #AA7760",
"k  c #A9706D",
"l  c #A7796F",
"z  c #AA7A6D",
"x  c #B77466",
"c  c #BE786A",
"v  c #A56D79",
"b  c #AB6F7A",
"n  c #AC7672",
"m  c #AD707B",
"M  c #A27C7F",
"N  c #AC7C7D",
"B  c #B57774",
"V  c #C36E5B",
"C  c #C1785C",
"Z  c #C0766C",
"A  c #C37A6D",
"S  c #C47F70",
"D  c #DE8809",
"F  c #DB9D1B",
"G  c #E38B06",
"H  c #E59506",
"J  c #E79B08",
"K  c #F09E19",
"L  c #EBA205",
"P  c #E9AC0A",
"I  c #F6A505",
"U  c #F3AC04",
"Y  c #FAAC02",
"T  c #F4A80F",
"R  c #ECBA0C",
"E  c #F5B404",
"W  c #FCB401",
"Q  c #F4BA05",
"!  c #FCBC02",
"~  c #F8BB0E",
"^  c #F3A814",
"/  c #F1A21C",
"(  c #E9B010",
")  c #F5B013",
"_  c #F5BB1A",
"`  c #D18C3A",
"'  c #D6963B",
"]  c #DCA824",
"[  c #E4B620",
"{  c #F3B527",
"}  c #F6C405",
"|  c #FCC302",
" . c #F6CB04",
".. c #FCCC01",
"X. c #F4C00C",
"o. c #FCC40B",
"O. c #FDC90D",
"+. c #FDD301",
"@. c #FCDB01",
"#. c #FBD309",
"$. c #FAC512",
"%. c #F8CB1B",
"&. c #F9D917",
"*. c #F7D019",
"=. c #FBD51C",
"-. c #F6E006",
";. c #FDE301",
":. c #FDEC01",
">. c #FDE60A",
",. c #FDEF0F",
"<. c #FEF001",
"1. c #FCEF1E",
"2. c #FDF31C",
"3. c #F4C421",
"4. c #F9CB24",
"5. c #F6C42B",
"6. c #FBDD23",
"7. c #F7D328",
"8. c #F6D030",
"9. c #FBD934",
"0. c #F8D638",
"q. c #F9DB3A",
"w. c #FDE928",
"e. c #FDF42C",
"r. c #F7E330",
"t. c #FBE634",
"y. c #FCEC36",
"u. c #F9E43C",
"i. c #FEF332",
"p. c #FDF23D",
"a. c #B78557",
"s. c #B28272",
"d. c #BC867B",
"f. c #D3994C",
"g. c #CE8F5A",
"h. c #CFA34D",
"j. c #D8A849",
"k. c #DAA848",
"l. c #D2A753",
"z. c #E0B244",
"x. c #E1BD4C",
"c. c #C68669",
"v. c #C48274",
"b. c #C58777",
"n. c #EBC547",
"m. c #E7CB48",
"M. c #EACE4A",
"N. c #F7E343",
"B. c #F9E643",
"V. c #FBEA42",
"C. c #FBEA4A",
"Z. c #FEF445",
"A. c #FDF34A",
"S. c #F9E556",
"D. c #FBEA53",
"F. c #FDF454",
"G. c #A27E81",
"H. c #AD7980",
"J. c #B67E83",
"K. c #A58485",
"L. c #AC8586",
"P. c #A78888",
"I. c #AA8D8D",
"U. c #B58587",
"Y. c #B98386",
"T. c #B68985",
"R. c #BB8688",
"E. c #B48A89",
"W. c #B98C8B",
"Q. c #B6908E",
"!. c #BB908E",
"~. c #AB9191",
"^. c #C48D84",
"/. c #C08E8C",
"(. c #C49181",
"). c #C2928F",
"_. c #C8968F",
"`. c #C49591",
"'. c #C69994",
/* pixels */
"      r u i d d d d d M d d M w       r u i d G.d s i u r .     ",
". . q v m Y.`.`.`.`./.W.W./.E.t . . q b b Y.`.`.`.`.Y.m v o . . ",
"v v b m b Y.`.`.`.`.'.!.'.`.W.a p v b b b Y.`.`.`.`.Y.b b v v r ",
"v v v v v N W.W.Q.W.Q.Q./.^.(.l k B b v v N W.W.W.W.H.v v v v r ",
"u u u u u s G.y a G.l a.l.m.M.M.m.x.h.a.e s M y s G.s u u u u u ",
"Y.Y.Y.Y.Y.).W.s d.h._ r.A.A.Z.Z.Z.Z.Z.B.n.g.^.s E.`.).R.Y.Y.Y.Y.",
").`.'.)._.!.G.j ] @.<.e.A.F.A.Z.Z.Z.Z.Z.Z.N.j.h !.`.`.`.`.`.`.`.",
"W.W.W.W.W.).b.[ :.<.<.e.A.B.q.0.q.V.Z.Z.Z.Z.V.z.b.W.W.W.W.W.W.W.",
"d G.K.P.~.s.] :.<.<.:.&.{ / K / K K { q.Z.Z.Z.V.j.z G.G.G.G.G.r ",
")._.`.'._.' @.<.:.:.} P ~ %.u.D.S.4.) ^ 5.Z.Z.Z.N.f./.`.`._.`.s ",
"`.`.`.`.c.R :.:.:.o.U | w.V.Z.A.F.D.D.4.T 5.Z.V.Z.n.v.W.).E.G.y ",
"U.W.W.T.` @.:.:.#.E | ..w.Z.u.8.u.Z.F.q.o.) q.A.F.S.g.R.W.Q.L.y ",
"G.G.G.n F ;.:.;.} | | ..,.p.7.~ 3.V.C.9.O.~ 5.A.F.F.l.s.~.~.P.G.",
"Y.Y.U.c ( ;.;.@.Q | | | :.2.y.w.%._ _ $.O.o._ V.A.F.n.b.'.'.`.`.",
"v v m 0 R ;.;.@.| | | ! Q -.1.p.Z.t.=.O.O.$.~ u.A.A.n.c.`.`.`.`.",
". X p 0 R @.;.@.! ! ! ! E U Q *.y.Z.V.=.o.o.$.t.A.V.n.C W.W.W.W.",
"a s G.x P @.@.@.! ! ! | @.@.| U X.2.i.6.o.! $.y.y.w._ 9 y o . o ",
"!.`.'.S J @.@.@.| ! ! ..:.<.@.|  .:.:.#.! ! o.>.>.:.P 9 v X .   ",
"`.`.`.v.3 #.@.@...! W } :.:.<.:.<.<.-.! W W ..;.;.;.G 0 N v v r ",
"U.W.W.Y.8 Q ..@.+.| W U Q ..;.:.:. .E W W | @.;.;. .4 f v v v r ",
"P.K.G.G.7 H ..+.@.#.o.Y Y I E } Q I Y W ! @.;.;.#.H 6 p u u u u ",
"'.`.`.`.c : L ....+.&.o.W W I I Y W W | @.@.@.@.Q 1 V R.J.R.R.J.",
"`.`.`.'._.7 , U | ....+...} ! ! ! | +.@.@.@.@.Q 3 6 ^.`.`.`.`.`.",
"W.W.W.E.!.B = 1 L | | | ............+.......E 3 - x W.W.E.W.W.W.",
"s G.K.K.~.~.x = & H U ! | | ..| ........Q H 1 ; 0 L.M G.G.M M y ",
"`.`.'.'.'.'._.A = & 2 D J U E E W U J G 2 * ; V )._.)._.`.`.`.M ",
"`.`.`.`._.`./.'.b.7 # % & > < < < , > & $ 5 c.`.).).).W.!.W.M t ",
"U.W.W.W.W.W.E.W.W.T.g @ + O O % # O + @ 0 Y.W.W.W.W.W.W.Q.Q.L.y ",
"G.G.G.H.B K.d y s K.K.L.T.Y.c g g x n G.G.G.G.y s G.K.K.I.~.L.d ",
"R.J.J.J.E.!.!.s.W.`.).W.W.W.R.R./.`.W./.).`.G.a W.`.`./.W./.R.Y.",
"v b H.v H.R.!.K.W.`.R.m b b b m /./.`.`.`.'.Q.s W.`.R.m b b b v ",
". q v b b J.Q.G.Y.).J.m m v q X W.`.`.`.`.`.`.s Y.`.J.m m v q . "
};
