/* XPM */
static char *coin[] = {
/* columns rows colors chars-per-pixel */
"32 32 129 2 ",
"   c #C95503",
".  c #CE5905",
"X  c #C85515",
"o  c #C9581E",
"O  c #D15F12",
"+  c #D26B03",
"@  c #DC7E04",
"#  c #DF7E0C",
"$  c #C85820",
"%  c #CC5E2A",
"&  c #CE673B",
"*  c #D46D37",
"=  c #CD6A41",
"-  c #DF8704",
";  c #DE8108",
":  c #E28B04",
">  c #E89302",
",  c #E99E04",
"<  c #EEA506",
"1  c #EDAA05",
"2  c #FAAC03",
"3  c #F6B305",
"4  c #FBB402",
"5  c #F4BC04",
"6  c #FCBC02",
"7  c #FCBE0B",
"8  c #F3AB17",
"9  c #F4AB18",
"0  c #F4B71E",
"q  c #F6B81A",
"w  c #DD8E3B",
"e  c #E6B42A",
"r  c #F4B524",
"t  c #F3B32A",
"y  c #E2A135",
"u  c #E5AB33",
"i  c #E3A239",
"p  c #E7B03D",
"a  c #F7C705",
"s  c #FCC402",
"d  c #FCCB02",
"f  c #FCC40C",
"g  c #F1CE0D",
"h  c #FDC90E",
"j  c #F4D103",
"k  c #FDD402",
"l  c #FDDB01",
"z  c #F2D40D",
"x  c #FCD309",
"c  c #F9DD09",
"v  c #F7C710",
"b  c #FAC612",
"n  c #FCCA13",
"m  c #F6C418",
"M  c #FCD41A",
"N  c #FDE201",
"B  c #FEEC01",
"V  c #FAE60C",
"C  c #FEF100",
"Z  c #FDF30E",
"A  c #FCEB13",
"S  c #FDE419",
"D  c #FDE91A",
"F  c #EBC725",
"G  c #F9CD26",
"H  c #F9C729",
"J  c #F9D122",
"K  c #F9D436",
"L  c #F9DD37",
"P  c #F9DB39",
"I  c #FDEC24",
"U  c #FDEE2B",
"Y  c #FCE533",
"T  c #FAE23E",
"R  c #FDF232",
"E  c #E09648",
"W  c #E4AE54",
"Q  c #E5B85E",
"!  c #DB8C60",
"~  c #DE966E",
"^  c #E5B667",
"/  c #EECC45",
"(  c #EFD144",
")  c #EAC755",
"_  c #F1D755",
"`  c #F1D955",
"'  c #FAE642",
"]  c #FCEC43",
"[  c #F5E14F",
"{  c #FCE649",
"}  c #FCEF49",
"|  c #FEF444",
" . c #FFF846",
".. c #FDF44B",
"X. c #FEF84B",
"o. c #FBED51",
"O. c #FEF552",
"+. c #EBCB65",
"@. c #EBCC68",
"#. c #DC9781",
"$. c #DC9A85",
"%. c #E5BA84",
"&. c #E0A796",
"*. c #E4AE9E",
"=. c #E6BB92",
"-. c #E5B6A9",
";. c #E7B9AC",
":. c #E7C286",
">. c #E9C584",
",. c #E7C199",
"<. c #E9C49A",
"1. c #E9C898",
"2. c #E9C6AF",
"3. c #EACBAD",
"4. c #E9C0B6",
"5. c #EACAB2",
"6. c #F0D5CF",
"7. c #F3DEDA",
"8. c #F3E4D6",
"9. c #F4E3DC",
"0. c #F6E7E4",
"q. c #F6E9E3",
"w. c #F7EAEB",
"e. c #F8EEED",
"r. c #F9F0EF",
"t. c #F9EFF0",
"y. c #FAF3F4",
"u. c #FBF6F8",
"i. c #FFFFFF",
/* pixels */
"i.i.i.i.i.i.i.i.i.i.i.i.i.i.i.i.i.i.i.i.i.i.i.i.i.i.i.i.i.i.i.i.",
"i.i.i.i.i.i.i.i.i.i.i.i.i.i.i.i.i.i.i.i.i.i.i.i.i.i.i.i.i.i.i.i.",
"i.i.i.i.i.i.i.i.i.i.i.i.i.i.i.i.i.i.i.i.i.i.i.i.i.i.i.i.i.i.i.i.",
"i.i.i.i.i.i.i.i.i.i.i.i.i.i.i.i.i.i.i.i.i.i.i.i.i.i.i.i.i.i.i.i.",
"i.i.i.i.i.i.i.i.i.i.i.i.i.i.i.i.i.i.i.i.i.i.i.i.i.i.i.i.i.i.i.i.",
"i.i.i.i.i.i.i.i.i.i.i.i.i.i.i.i.i.i.i.i.i.i.i.i.i.i.i.i.i.i.i.i.",
"i.i.i.i.i.i.i.i.i.i.i.i.i.t.q.8.8.q.y.i.i.i.i.i.i.i.i.i.i.i.i.i.",
"i.i.i.i.i.i.i.i.i.i.i.8.>.+.` [ [ ` @.1.9.i.i.i.i.i.i.i.i.i.i.i.",
"i.i.i.i.i.i.i.i.i.u.1.F V | ..|  . .| ' ) 3.u.i.i.i.i.i.i.i.i.i.",
"i.i.i.i.i.i.i.i.u.:.z C Z | ' P P ' |  .| ( <.u.i.i.i.i.i.i.i.i.",
"i.i.i.i.i.i.i.i.,.g C C c 0 8 t t 9 r T | | / 5.i.i.i.i.i.i.i.i.",
"i.i.i.i.i.i.i.7.e B C k 3 b Y ..O.{ H 8 P | ] Q 0.i.i.i.i.i.i.i.",
"i.i.i.i.i.i.i.=.j B N 3 s S | L L X.O.b q ' .._ 2.i.i.i.i.i.i.i.",
"i.i.i.i.i.i.u.W N B k 6 s V R J m K P n 7 K O.o.%.i.i.i.i.i.i.i.",
"i.i.i.i.i.i.y.p N N d s s a A R Y J b b f G } ..^ y.i.i.i.i.i.i.",
"i.i.i.i.i.i.w.u l N s 6 6 6 3 v Y | Y h f G | ] W w.i.i.i.i.i.i.",
"i.i.i.i.i.i.t.i l l d 6 s c l 7 5 D I f 7 M U D y w.i.i.i.i.i.i.",
"i.i.i.i.i.i.u.E d l k 6 6 N C N N C l 6 6 k N l w r.i.i.i.i.i.i.",
"i.i.i.i.i.i.i.~ 3 k k s 4 3 d B B d 3 4 s N N 5 ! i.i.i.i.i.i.i.",
"i.i.i.i.i.i.i.;.# d k x f 2 2 3 3 2 4 s l N l ; *.i.i.i.i.i.i.i.",
"i.i.i.i.i.i.i.e.* > d d x s 6 4 4 6 d l l l < * 0.i.i.i.i.i.i.i.",
"i.i.i.i.i.i.i.i.4.o > 6 d d d d d d k k d , O ;.i.i.i.i.i.i.i.i.",
"i.i.i.i.i.i.i.i.i.&.X @ < 3 s s d s 6 1 @ O $.u.i.i.i.i.i.i.i.i.",
"i.i.i.i.i.i.i.i.i.u.-.%   + @ - : @ + . % *.u.i.i.i.i.i.i.i.i.i.",
"i.i.i.i.i.i.i.i.i.i.i.7.$.= $ X X o & #.7.i.i.i.i.i.i.i.i.i.i.i.",
"i.i.i.i.i.i.i.i.i.i.i.i.i.y.7.6.6.7.e.i.i.i.i.i.i.i.i.i.i.i.i.i.",
"i.i.i.i.i.i.i.i.i.i.i.i.i.i.i.i.i.i.i.i.i.i.i.i.i.i.i.i.i.i.i.i.",
"i.i.i.i.i.i.i.i.i.i.i.i.i.i.i.i.i.i.i.i.i.i.i.i.i.i.i.i.i.i.i.i.",
"i.i.i.i.i.i.i.i.i.i.i.i.i.i.i.i.i.i.i.i.i.i.i.i.i.i.i.i.i.i.i.i.",
"i.i.i.i.i.i.i.i.i.i.i.i.i.i.i.i.i.i.i.i.i.i.i.i.i.i.i.i.i.i.i.i.",
"i.i.i.i.i.i.i.i.i.i.i.i.i.i.i.i.i.i.i.i.i.i.i.i.i.i.i.i.i.i.i.i.",
"i.i.i.i.i.i.i.i.i.i.i.i.i.i.i.i.i.i.i.i.i.i.i.i.i.i.i.i.i.i.i.i."
};
