/* XPM */
static char *star[] = {
/* columns rows colors chars-per-pixel */
"32 32 213 2 ",
"   c #6B3309",
".  c #7C3303",
"X  c #773E08",
"o  c #773F08",
"O  c #7D440A",
"+  c #863B03",
"@  c #8B3F01",
"#  c #843A09",
"$  c #864209",
"%  c #80450C",
"&  c #894B0A",
"*  c #8B4F0C",
"=  c #8E4E0E",
"-  c #934703",
";  c #934803",
":  c #944709",
">  c #904D08",
",  c #914D08",
"<  c #934F0D",
"1  c #8B500C",
"2  c #925207",
"3  c #9B5304",
"4  c #9A5306",
"5  c #9B5505",
"6  c #9D5A07",
"7  c #9A5408",
"8  c #9C590C",
"9  c #9E580C",
"0  c #9A5A13",
"q  c #9B5D11",
"w  c #9B5D1F",
"e  c #A05806",
"r  c #AB5B06",
"t  c #A65E09",
"y  c #9F6114",
"u  c #9C621B",
"i  c #A56109",
"p  c #A7610B",
"a  c #A86309",
"s  c #AC670E",
"d  c #A9690D",
"f  c #AC690D",
"g  c #AF6C0E",
"h  c #B56D0A",
"j  c #A66114",
"k  c #A86714",
"l  c #A86913",
"z  c #A2651B",
"x  c #A6671C",
"c  c #A0691A",
"v  c #A36B1B",
"b  c #A46819",
"n  c #A3691F",
"m  c #AD6D1A",
"M  c #A86E1D",
"N  c #A77017",
"B  c #AB721F",
"V  c #AB731F",
"C  c #B57611",
"Z  c #B67613",
"A  c #B57A13",
"S  c #B97A14",
"D  c #BA7B17",
"F  c #BC7B14",
"G  c #B3751C",
"H  c #B97A18",
"J  c #BC7B18",
"K  c #B8781E",
"L  c #B27820",
"P  c #B07B27",
"I  c #B57E24",
"U  c #B97F21",
"Y  c #B27937",
"T  c #C3760B",
"R  c #BE8018",
"E  c #BD811B",
"W  c #B88020",
"Q  c #BB8320",
"!  c #BB8223",
"~  c #BD8626",
"^  c #BE8927",
"/  c #BA852A",
"(  c #B8842D",
")  c #BF8B29",
"_  c #C28212",
"`  c #CB8711",
"'  c #CF8A17",
"]  c #C9851A",
"[  c #CD8E18",
"{  c #CC961E",
"}  c #D59617",
"|  c #D69A1A",
" . c #C78E25",
".. c #C79124",
"X. c #C59327",
"o. c #CA9427",
"O. c #C6922D",
"+. c #C5942F",
"@. c #CE992D",
"#. c #CF982E",
"$. c #D19C22",
"%. c #D09C2D",
"&. c #C09034",
"*. c #CB9733",
"=. c #C29038",
"-. c #CC9C38",
";. c #CB9D3C",
":. c #CD9E3E",
">. c #D09E38",
",. c #CFA13B",
"<. c #D2A53B",
"1. c #D6A93D",
"2. c #EFBA37",
"3. c #EAB53A",
"4. c #C38D41",
"5. c #C79442",
"6. c #CB9741",
"7. c #CA9842",
"8. c #CDA54E",
"9. c #D3A541",
"0. c #D1A045",
"q. c #D4AB48",
"w. c #D7AA4B",
"e. c #DAB046",
"r. c #DFB447",
"t. c #DAB34A",
"y. c #DBB04F",
"u. c #DDB54D",
"i. c #CDA350",
"p. c #D8AF51",
"a. c #D9B051",
"s. c #D8B152",
"d. c #DDB350",
"f. c #DEB651",
"g. c #DEB452",
"h. c #D8B45E",
"j. c #DFB95A",
"k. c #DEB95C",
"l. c #E4B540",
"z. c #E7B640",
"x. c #EFBE44",
"c. c #E4BB4E",
"v. c #EABF4E",
"b. c #E1B850",
"n. c #E3BD53",
"m. c #E2BF52",
"M. c #D0A96A",
"N. c #DDBF6C",
"B. c #DDBB75",
"V. c #DDBA7E",
"C. c #F0C347",
"Z. c #F2C448",
"A. c #F2C54C",
"S. c #E3C057",
"D. c #E7C357",
"F. c #E5C458",
"G. c #F4CA53",
"H. c #F5D159",
"J. c #DFC061",
"K. c #DFC168",
"L. c #EBCB63",
"P. c #EACD61",
"I. c #EFCD61",
"U. c #E5C76A",
"Y. c #E8C66D",
"T. c #EED26B",
"R. c #EDD76B",
"E. c #F5D763",
"W. c #F0D66E",
"Q. c #F1D670",
"!. c #F2D672",
"~. c #F1DA71",
"^. c #F0DA76",
"/. c #F0DD77",
"(. c #F2DB7C",
"). c #F0DE7E",
"_. c #F5DC7D",
"`. c #F2E17A",
"'. c #F4E07C",
"]. c #F4E07F",
"[. c #FAE27C",
"{. c #E2CB80",
"}. c #EBCF85",
"|. c #F4DF80",
" X c #F6DF80",
".X c #F7DE82",
"XX c #F8DE84",
"oX c #F2DA8B",
"OX c #EDDA95",
"+X c #EEDA9C",
"@X c #F8E581",
"#X c #F5E38D",
"$X c #F6E58C",
"%X c #F9E389",
"&X c #F5E392",
"*X c #F7E794",
"=X c #F1E29B",
"-X c #F4E299",
";X c #F2E19E",
":X c #F8E89F",
">X c #ECD8AA",
",X c #EFDFB6",
"<X c #F7ECA2",
"1X c #F5E8A4",
"2X c #FEF6AA",
"3X c #FFFEBE",
"4X c #FEFCC1",
"5X c #F9F4D2",
"6X c #FFFFD2",
"7X c #FAF6DA",
"8X c #FEFED8",
"9X c #FEFEDB",
"0X c None",
/* pixels */
"0X0X0X0X0X0X0X0X0X0X0X0X0X0X0X0X0X0X0X0X0X0X0X0X0X0X0X0X0X0X0X0X",
"0X0X0X0X0X0X0X0X0X0X0X0X0X0X0X0X0X0X0X0X0X0X0X0X0X0X0X0X0X0X0X0X",
"0X0X0X0X0X0X0X0X0X0X0X0X0X0X0X0X0X0X0X0X0X0X0X0X0X0X0X0X0X0X0X0X",
"0X0X0X0X0X0X0X0X0X0X0X0X0X0X0X0X0X0X0X0X0X0X0X0X0X0X0X0X0X0X0X0X",
"0X0X0X0X0X0X0X0X0X0X0X0X0X0X0X0X0X0X0X0X0X0X0X0X0X0X0X0X0X0X0X0X",
"0X0X0X0X0X0X0X0X0X0X0X0X0X0X0X(.5.0X0X0X0X0X0X0X0X0X0X0X0X0X0X0X",
"0X0X0X0X0X0X0X0X0X0X0X0X0X0X0X.X7.0X0X0X0X0X0X0X0X0X0X0X0X0X0X0X",
"0X0X0X0X0X0X0X0X0X0X0X0X0X0XE..X0.x 0X0X0X0X0X0X0X0X0X0X0X0X0X0X",
"0X0X0X0X0X0X0X0X0X0X0X0X0X0XH.XXw.m 0X0X0X0X0X0X0X0X0X0X0X0X0X0X",
"0X0X0X0X0X0X0X0X0X0X0X0X0X0XG..Xy.G 0X0X0X0X0X0X0X0X0X0X0X0X0X0X",
"0X0X0X0X0X0X0X0X0X0X0X0X0XZ.A._.g.U y 0X0X0X0X0X0X0X0X0X0X0X0X0X",
"0X0X0X0X0X0X0X0X0X0X0X0X0X2.x.^.g.~ k 0X0X0X0X0X0X0X0X0X0X0X0X0X",
"0X0X0X0X0X0X0X;X-X&X$X%X[.C.3.I.u.^ ! <.<.9.q.p.k.K.0X0X0X0X0X0X",
"0X0X0X0X0XY M.>X5X9X6X4X2X@X3.n.e.+.e.S.F.P.R.~.W.S.:.0X0X0X0X0X",
"0X0X0X0X0X0X: j 4.V.,X7X9X3X^.3.1.J.]./.`.'.Q.n.#.J 0X0X0X0X0X0X",
"0X0X0X0X0X0X0X# - t K 7.B.+X<XD.j.:X*X].T.c.%.F s 0X0X0X0X0X0X0X",
"0X0X0X0X0X0X0X0X0X+ ; e f D *.f.oX#XL.r.#.D a 6 0X0X0X0X0X0X0X0X",
"0X0X0X0X0X0X0X0X0X0X. $ 5 g ..g.U.1XU.O.d 5 = 0X0X0X0X0X0X0X0X0X",
"0X0X0X0X0X0X0X0X0X0X0Xr h R :.7.o.}.;Xs.L 0 0X0X0X0X0X0X0X0X0X0X",
"0X0X0X0X0X0X0X0X0X0X0XT _ ..) W Z -.OXK./ z 0X0X0X0X0X0X0X0X0X0X",
"0X0X0X0X0X0X0X0X0X0X] ` {  .B l i S p.{.=.b 0X0X0X0X0X0X0X0X0X0X",
"0X0X0X0X0X0X0X0X0X0X' | X.v 0 8 4 a E h.8.M 0X0X0X0X0X0X0X0X0X0X",
"0X0X0X0X0X0X0X0X0X0X} $.c * & * < 7 p ! 8.P w 0X0X0X0X0X0X0X0X0X",
"0X0X0X0X0X0X0X0X0X0X| N % o 0X0X0X0X, 6 I ( u 0X0X0X0X0X0X0X0X0X",
"0X0X0X0X0X0X0X0X0X[ A o   0X0X0X0X0X0X$ 2 B n 0X0X0X0X0X0X0X0X0X",
"0X0X0X0X0X0X0X0X0XZ % 0X0X0X0X0X0X0X0X0X0X* u 0X0X0X0X0X0X0X0X0X",
"0X0X0X0X0X0X0X0X0X0X0X0X0X0X0X0X0X0X0X0X0X0X0X0X0X0X0X0X0X0X0X0X",
"0X0X0X0X0X0X0X0X0X0X0X0X0X0X0X0X0X0X0X0X0X0X0X0X0X0X0X0X0X0X0X0X",
"0X0X0X0X0X0X0X0X0X0X0X0X0X0X0X0X0X0X0X0X0X0X0X0X0X0X0X0X0X0X0X0X",
"0X0X0X0X0X0X0X0X0X0X0X0X0X0X0X0X0X0X0X0X0X0X0X0X0X0X0X0X0X0X0X0X",
"0X0X0X0X0X0X0X0X0X0X0X0X0X0X0X0X0X0X0X0X0X0X0X0X0X0X0X0X0X0X0X0X",
"0X0X0X0X0X0X0X0X0X0X0X0X0X0X0X0X0X0X0X0X0X0X0X0X0X0X0X0X0X0X0X0X"
};
