/* XPM */
static char *player_left[] = {
/* columns rows colors chars-per-pixel */
"32 32 93 2 ",
"   c #3F0026",
".  c #400027",
"X  c #410028",
"o  c #430029",
"O  c #440029",
"+  c #44002A",
"@  c #45002A",
"#  c #46002A",
"$  c #46002B",
"%  c #47002B",
"&  c #48002B",
"*  c #48002C",
"=  c #49002C",
"-  c #4A002D",
";  c #4C002E",
":  c #4D002E",
">  c #4D002F",
",  c #4E002F",
"<  c #4F0030",
"1  c #500030",
"2  c #500031",
"3  c #510031",
"4  c #560033",
"5  c #560034",
"6  c #5D0038",
"7  c #5E0038",
"8  c #5F0039",
"9  c #62003B",
"0  c #63003B",
"q  c #64003C",
"w  c #65003D",
"e  c #68003E",
"r  c #6C0041",
"t  c #720044",
"y  c #750046",
"u  c #7F004C",
"i  c #82004E",
"p  c #84014F",
"a  c #890151",
"s  c #890152",
"d  c #8D0054",
"f  c #900056",
"g  c #940158",
"h  c #950059",
"j  c #9A005B",
"k  c #9A005C",
"l  c #A0005F",
"z  c #A10060",
"x  c #A20060",
"c  c #A50162",
"v  c #A70063",
"b  c #AB0066",
"n  c #AD0167",
"m  c #B10069",
"M  c #B5016B",
"N  c #B5016C",
"B  c #B8006D",
"V  c #B9006E",
"C  c #BA006F",
"Z  c #BC016F",
"A  c #BD0170",
"S  c #BE0071",
"D  c #BF0071",
"F  c #BE0171",
"G  c #BF0171",
"H  c #BF0072",
"J  c #BF0172",
"K  c #C00071",
"L  c #C00171",
"P  c #C00072",
"I  c #C10072",
"U  c #C00172",
"Y  c #C10172",
"T  c #C10073",
"R  c #C10173",
"E  c #C20073",
"W  c #C20173",
"Q  c #C30173",
"!  c #C30074",
"~  c #C30174",
"^  c #C40174",
"/  c #C40075",
"(  c #C50075",
")  c #C60075",
"_  c #C60175",
"`  c #C70175",
"'  c #C70076",
"]  c #C60176",
"[  c #C80176",
"{  c #C80077",
"}  c #C90077",
"|  c #C90177",
" . c #CA0177",
/* pixels */
"P P P P P P P P P P P P P P P P P P P P P P P P P P P P P P P P ",
"P P P P P P P P P P P P P P P P P P P P P P P P P P P P P P P P ",
"P P P P P P P P P P P P P P P P P P P P P P P P P P P P P P P P ",
"P P P P P P P P P P P P P P P P P P P P P P P P P P P P P P P P ",
"P P P P P P P P P P P P P P P P P P P P P P P P P P P P P P P P ",
"P P P P P P P P P P P P P P P P P P P P P P P P P P P P P P P P ",
"P P P P P P P P P P P P P P P P P P P P P P P P P P P P P P P P ",
"P P P P P P P P P P P P P P P P P P P P P P P P P P P P P P P P ",
"P P P P P P P P P P P P P P P P P P P P P P P P P P P P P P P P ",
"P P P S P P S P P P P P P P P P P P P P P P S S P P P P P P P P ",
"P P P { P P / P P P P P P P P P P P S / / P / / P P P P P P P P ",
"P P S i 9 q f ~ P P P P P P P P P P / x e 6 y M ^ P P P P P P P ",
"P / t   * * . s { P Q S P P P P S / c % % * . 6 A Q Q P P P P P ",
"/ b * , , , * 4 Z Q P P P P P P S / r % < , 3 o g | A P P P P P ",
"{ x % , , , * 3 M ~ P P P P P P S ~ 0 * , * , o s { A S P P P P ",
"P V 3 * , , % 0 / Q Q S P P P P S { u   , , , % c | Q P P P P P ",
"S / k , % % 5 n ^ P P P P P P P P ~ V q % o % p / P P P P P P P ",
"P S / m d g V / P P P P P P P P P S / P k d c / ~ P P P P P P P ",
"P P S / | { ~ S P P P P P P P P P P S P { { / P P P P P P P P P ",
"P P P S S S P P P P P P P P P P P P P P S S S P P P P P P P P P ",
"P P P P P P P P P P P P P P P P P P P P P P P P P P P P P P P P ",
"P P P P P P P P P P P P P P P P P P P P P P P P P P P P P P P P ",
"P P P P P P P P P P P P P P P P P P P P P P P P P P P P P P P P ",
"P P P P P P P P P P P P P P P P P P P P P P P P P P P P P P P P ",
"P P P P P P P P P P P P P P P P P P P P P P P P P P P P P P P P ",
"P P P P P P P P P P P P P P P P P P P P P P P P P P P P P P P P ",
"P P P P P P P P P P P P P P P P P P P P P P P P P P P P P P P P ",
"P P P P P P P P P P P P P P P P P P P P P P P P P P P P P P P P ",
"P P P P P P P P P P P P P P P P P P P P P P P P P P P P P P P P ",
"P P P P P P P P P P P P P P P P P P P P P P P P P P P P P P P P ",
"P P P P P P P P P P P P P P P P P P P P P P P P P P P P P P P P ",
"P P P P P P P P P P P P P P P P P P P P P P P P P P P P P P P P "
};
