/* XPM */
static char *player_up[] = {
/* columns rows colors chars-per-pixel */
"32 32 58 1 ",
"  c #410027",
". c #430029",
"X c #440029",
"o c #44002A",
"O c #45002A",
"+ c #46002A",
"@ c #46002B",
"# c #48002B",
"$ c #48002C",
"% c #4A002D",
"& c #4C002E",
"* c #4D002E",
"= c #4F0030",
"- c #500030",
"; c #510031",
": c #550033",
"> c #580035",
", c #5A0036",
"< c #5B0037",
"1 c #5E0039",
"2 c #5F0039",
"3 c #61003A",
"4 c #62003B",
"5 c #68003E",
"6 c #720044",
"7 c #730045",
"8 c #7E004B",
"9 c #81004D",
"0 c #960059",
"q c #98005A",
"w c #99005B",
"e c #9A005B",
"r c #9C005D",
"t c #9D005E",
"y c #A60062",
"u c #A60063",
"i c #A90064",
"p c #A90065",
"a c #AE0067",
"s c #AE0068",
"d c #B3006A",
"f c #B4006B",
"g c #B5006B",
"h c #B9006E",
"j c #BD0070",
"k c #BE0071",
"l c #BF0071",
"z c #BF0072",
"x c #C00072",
"c c #C10072",
"v c #C20073",
"b c #C30074",
"n c #C40074",
"m c #C50075",
"M c #C60075",
"N c #C60076",
"B c #C70076",
"V c #C90077",
/* pixels */
"xxxxxxxxkxxxxxxxxxxxxxxxxxxxxxxx",
"xxxxxxkkkkxxxxxxxxxxxxkkkxxxxxxx",
"xxxxxkMVVMkxxxxxxxxxxkbVVMkxxxxx",
"xxxxxMu89aMkxxxxxxxxkMa98uMkxxxx",
"xxxkMq@@.*uMkxxxxxxkMu*..@0Mkxxx",
"xxxxk<$*-@5MxxxxxxxxM5@-=@<kxxxx",
"xxxbg-***$<xxxxxxxxxk<$***-dMxxx",
"xxxxx4@**.7MkxxxxxxkM7.-=.4xkxxx",
"xxxkMp:@@1dxxxxxxxxxbg1@@:pMkxxx",
"xxxxkMhqrkMxxxxxxxxxkbktqhMxxxxx",
"xxxxxxxVMxkxxxxxxxxxxkxVMxxxxxxx",
"xxxxxxxkkxxxxxxxxxxxxxkkkxxxxxxx",
"xxxxxxxxxxxxxxxxxxxxxxxxxxxxxxxx",
"xxxxxxxxxxxxxxxxxxxxxxxxxxxxxxxx",
"xxxxxxxxxxxxxxxxxxxxxxxxxxxxxxxx",
"xxxxxxxxxxxxxxxxxxxxxxxxxxxxxxxx",
"xxxxxxxxxxxxxxxxxxxxxxxxxxxxxxxx",
"xxxxxxxxxxxxxxxxxxxxxxxxxxxxxxxx",
"xxxxxxxxxxxxxxxxxxxxxxxxxxxxxxxx",
"xxxxxxxxxxxxxxxxxxxxxxxxxxxxxxxx",
"xxxxxxxxxxxxxxxxxxxxxxxxxxxxxxxx",
"xxxxxxxxxxxxxxxxxxxxxxxxxxxxxxxx",
"xxxxxxxxxxxxxxxxxxxxxxxxxxxxxxxx",
"xxxxxxxxxxxxxxxxxxxxxxxxxxxxxxxx",
"xxxxxxxxxxxxxxxxxxxxxxxxxxxxxxxx",
"xxxxxxxxxxxxxxxxxxxxxxxxxxxxxxxx",
"xxxxxxxxxxxxxxxxxxxxxxxxxxxxxxxx",
"xxxxxxxxxxxxxxxxxxxxxxxxxxxxxxxx",
"xxxxxxxxxxxxxxxxxxxxxxxxxxxxxxxx",
"xxxxxxxxxxxxxxxxxxxxxxxxxxxxxxxx",
"xxxxxxxxxxxxxxxxxxxxxxxxxxxxxxxx",
"xxxxxxxxxxxxxxxxxxxxxxxxxxxxxxxx"
};
