/* XPM */
static char *player_right[] = {
/* columns rows colors chars-per-pixel */
"32 32 40 1 ",
"  c #4B002D",
". c #4C002E",
"X c #4F0030",
"o c #510031",
"O c #580035",
"+ c #5C0037",
"@ c #60003A",
"# c #66003D",
"$ c #69003F",
"% c #6E0042",
"& c #720044",
"* c #770047",
"= c #7A0049",
"- c #81004D",
"; c #84004F",
": c #84014F",
"> c #890152",
", c #8B0153",
"< c #8F0055",
"1 c #920057",
"2 c #940158",
"3 c #9B005D",
"4 c #9D005E",
"5 c #A0005F",
"6 c #A20160",
"7 c #A50163",
"8 c #A80064",
"9 c #AD0167",
"0 c #B10169",
"q c #B2006A",
"w c #B6016C",
"e c #B7006D",
"r c #BB016F",
"t c #BC016F",
"y c #BE0171",
"u c #BF0072",
"i c #C00072",
"p c #C20172",
"a c #C20073",
"s c #C30173",
/* pixels */
"iiiiiiiiiiiiiiiiiiiiiiiiiiiiiiii",
"iiiiiiiiiiiiiiiiiiiiiiiiiiiiiiii",
"iiiiiiiiiiiiiiiiiiiiiiiiiiiiiiii",
"iiiiiiiiiiiiiiiiiiiiiiiiiiiiiiii",
"iiiiiiiiiiiiiiiiiiiiiiiiiiiiiiii",
"iiiiiiiiiiiiiiiiiiiiiiiiiiiiiiii",
"iiiiiiiiiiiiiiiiiiiiiiiiiiiiiiii",
"iiiiiiiiiiiiiiiiiiiiiiiiiiiiiiii",
"iiiiiiiiiiiiiiiiiiiiiiiiiiiiiiii",
"iiiiiiiiiiiiiiiiiiiiiiiiiiiiiiii",
"iiiiiiiiiytyiiiiiiiiiiiiiittiiii",
"iiiiiiii9=#%4iiiiiiiiiiir<$#:eii",
"iiiiiiie#.  o4iiiiiiiiis>.   *yi",
"iiiiiis2.... &yiiiiiiisw@ ...o8i",
"iiiiiii, ... $tiiiiiiii0O ....5i",
"iiiiiis6o... -iiiiiiiiir% ...+wi",
"iiiiiiii:.XX&0iiiiiiisii7@..O2si",
"iiiiiiiii514wsiiiiiiiipip0218ssi",
"iiiiiiiiiisiyiiiiiiiiiiiiissipyi",
"iiiiiiiiiiiyiyiiiiiiiiiiiiiiyiys",
"iiiiiiiiiiiiiiiiiiiiiiiiitpisyii",
"iiiiiiiiyiiiiiiiiiiiiiiisiiiiiii",
"iiiiiiiiiiiiiiiiiiiiiiiiiiiiipii",
"iiiiiiiiiiiiiiiiiiiiiiiiiiiyiiii",
"iiiiiiiiiiiiiiiiiiiiiiiiiiiiisii",
"iiiiiiiiiiiiiiiiiiiiiiiipiiiitii",
"iiiiiiiiiiiiiiiiiiiiiiiiiisiiiii",
"iiiiiiiiiiiiiiiiiiiiiiiiitiiiiii",
"iiiiiiiiiiiiiiiiiiiiiiiiiiiiiiii",
"iiiiiiiiiiiiiiiiiiiiiiiiiiiiiiii",
"iiiiiiiiiiiiiiiiiiiiiiiiiiiiiiii",
"iiiiiiiiiiiiiiiiiiiiiiiiiiiiiiii"
};
