/* XPM */
static char *player_down[] = {
/* columns rows colors chars-per-pixel */
"32 32 58 1 ",
"  c #400027",
". c #420028",
"X c #440029",
"o c #45002A",
"O c #46002A",
"+ c #47002B",
"@ c #48002B",
"# c #49002C",
"$ c #4A002D",
"% c #4C002E",
"& c #4D002F",
"* c #4E002F",
"= c #4F0030",
"- c #500030",
"; c #510031",
": c #560034",
"> c #570035",
", c #5C0037",
"< c #5D0038",
"1 c #65003C",
"2 c #65003D",
"3 c #67003E",
"4 c #68003E",
"5 c #730045",
"6 c #760047",
"7 c #770047",
"8 c #780048",
"9 c #8F0055",
"0 c #900056",
"q c #9C005D",
"w c #9D005D",
"e c #9F005F",
"r c #A30061",
"t c #A40061",
"y c #A60062",
"u c #A60063",
"i c #A70063",
"p c #AF0068",
"a c #B00068",
"s c #B4006B",
"d c #B5006C",
"f c #B9006E",
"g c #BC006F",
"h c #BD0070",
"j c #BE0071",
"k c #BF0071",
"l c #BF0072",
"z c #C00072",
"x c #C10072",
"c c #C10073",
"v c #C20073",
"b c #C30074",
"n c #C40074",
"m c #C50075",
"M c #C60075",
"N c #C60076",
"B c #C70076",
"V c #C80077",
/* pixels */
"zzzzzzzzzzzzzzzzzzzzzzzzzzzzzzzz",
"zzzzzzzzzzzzzzzzzzzzzzzzzzzzzzzz",
"zzzzzzzzzzzzzzzzzzzzzzzzzzzzzzzz",
"zzzzzzzzzzzzzzzzzzzzzzzzzzzzzzzz",
"zzzzzzzzzzzzzzzzzzzzzzzzzzzzzzzz",
"zzzzzzzzzzzzzzzzzzzzzzzzzzzzzzzz",
"zzzzzzzzzzzzzzzzzzzzzzzzzzzzzzzz",
"zzzzzzzzzzzzzzzzzzzzzzzzzzzzzzzz",
"zzzzzzzzzzzzzzzzzzzzzzzzzzzzzzzz",
"zzzzzzzzzzzzzzzzzzzzzzzzzzzzzzzz",
"zzzzzzzzzzzzzzzzzzzzzzzzzzzzzzzz",
"zzzzzzzzzzzzzzzzzzzzzzzzzzzzzzzz",
"zzzzzzzzzzzzzzzzzzzzzzzzzzzzzzzz",
"zzzzzzzzzzzzzzzzzzzzzzzzzzzzzzzz",
"zzzzzzzzzzzzzzzzzzzzzzzzzzzzzzzz",
"zzzzzzzzzzzzzzzzzzzzzzzzzzzzzzzz",
"zzzzzzjzjzzzzzzzzzzzzzzzjjzzzzzz",
"zzzzzznnVnzzzzzzzzzzzznVVnzzzzzz",
"zzzzznq66ynzzzzzzzzzzny66qnzzzzz",
"zzzzV0.OO#enjzzzzzzjneOOO.9njzzz",
"zzzzj>#&&O2nzzzzzzzzn2O-&#:gzzzz",
"zzzbd-&&&#,jzzzzzzzzj,#&&&-snzzz",
"zzzjn2.== 8njzzzzzzjV8 ==.2nzzzz",
"zzzzna<@O4fnzzzzzzzjzf4#O<pnjzzz",
"zzzzjnjyybbjzzzzzzzzjbbiyjnzzzzz",
"zzzzzjznnzzzzzzzzzzzzzznnzjzzzzz",
"zzzzzzzzzzzzzzzzzzzzzzzjzzzzzzzz",
"zzzzzzzzzzzzzzzzzzzzzzzzzzzzzzzz",
"zzzzzzzzzzzzzzzzzzzzzzzzzzzzzzzz",
"zzzzzzzzzzzzzzzzzzzzzzzzzzzzzzzz",
"zzzzzzzzzzzzzzzzzzzzzzzzzzzzzzzz",
"zzzzzzzzzzzzzzzzzzzzzzzzzzzzzzzz"
};
